<svg width="24" height="24" viewBox="0 0 24 24" fill="none" xmlns="http://www.w3.org/2000/svg">
<path d="M12 1.25C17.93 1.25 22.75 6.07 22.75 12C22.75 17.93 17.93 22.75 12 22.75C6.07 22.75 1.25 17.93 1.25 12C1.25 6.07 6.07 1.25 12 1.25ZM12 21.25C17.1 21.25 21.25 17.1 21.25 12C21.25 6.9 17.1 2.75 12 2.75C6.9 2.75 2.75 6.9 2.75 12C2.75 17.1 6.9 21.25 12 21.25Z" fill="white"/>
<path d="M15.4976 12.7476H9.49756C9.08756 12.7476 8.74756 12.4076 8.74756 11.9976C8.74756 11.5876 9.08756 11.2476 9.49756 11.2476H15.4976C15.9076 11.2476 16.2476 11.5876 16.2476 11.9976C16.2476 12.4076 15.9076 12.7476 15.4976 12.7476Z" fill="white"/>
<path d="M11.4975 15.7475C11.3075 15.7475 11.1175 15.6775 10.9675 15.5275L7.9675 12.5275C7.6775 12.2375 7.6775 11.7575 7.9675 11.4675L10.9675 8.4675C11.2575 8.1775 11.7375 8.1775 12.0275 8.4675C12.3175 8.7575 12.3175 9.2375 12.0275 9.5275L9.5575 11.9975L12.0275 14.4675C12.3175 14.7575 12.3175 15.2375 12.0275 15.5275C11.8775 15.6775 11.6875 15.7475 11.4975 15.7475Z" fill="white"/>
</svg>
