<svg width="24" height="24" viewBox="0 0 24 24" fill="none" xmlns="http://www.w3.org/2000/svg">
<path d="M12 1.25C17.93 1.25 22.75 6.07 22.75 12C22.75 17.93 17.93 22.75 12 22.75C6.07 22.75 1.25 17.93 1.25 12C1.25 6.07 6.07 1.25 12 1.25ZM12 21.25C17.1 21.25 21.25 17.1 21.25 12C21.25 6.9 17.1 2.75 12 2.75C6.9 2.75 2.75 6.9 2.75 12C2.75 17.1 6.9 21.25 12 21.25Z" fill="white"/>
<path d="M8.5 11.25H14.5C14.91 11.25 15.25 11.59 15.25 12C15.25 12.41 14.91 12.75 14.5 12.75H8.5C8.09 12.75 7.75 12.41 7.75 12C7.75 11.59 8.09 11.25 8.5 11.25Z" fill="white"/>
<path d="M12.5001 8.25006C12.6901 8.25006 12.8801 8.32006 13.0301 8.47006L16.0301 11.4701C16.3201 11.7601 16.3201 12.2401 16.0301 12.5301L13.0301 15.5301C12.7401 15.8201 12.2601 15.8201 11.9701 15.5301C11.6801 15.2401 11.6801 14.7601 11.9701 14.4701L14.4401 12.0001L11.9701 9.53006C11.6801 9.24006 11.6801 8.76006 11.9701 8.47006C12.1201 8.32006 12.3101 8.25006 12.5001 8.25006Z" fill="white"/>
</svg>
