<svg width="25" height="25" viewBox="0 0 25 25" fill="none" xmlns="http://www.w3.org/2000/svg">
<path d="M8.70874 2.91309V5.91309" stroke="currentColor" stroke-width="1.5" stroke-miterlimit="10" stroke-linecap="round" stroke-linejoin="round"/>
<path d="M16.7087 2.91309V5.91309" stroke="currentColor" stroke-width="1.5" stroke-miterlimit="10" stroke-linecap="round" stroke-linejoin="round"/>
<path d="M21.7087 9.41309V14.5431C20.8187 13.8331 19.6887 13.4131 18.4587 13.4131C17.2287 13.4131 16.0787 13.8431 15.1787 14.5731C13.9687 15.5231 13.2087 17.0131 13.2087 18.6631C13.2087 19.6431 13.4888 20.5831 13.9688 21.3631C14.3388 21.9731 14.8187 22.5031 15.3887 22.9131H8.70874C5.20874 22.9131 3.70874 20.9131 3.70874 17.9131V9.41309C3.70874 6.41309 5.20874 4.41309 8.70874 4.41309H16.7087C20.2087 4.41309 21.7087 6.41309 21.7087 9.41309Z" stroke="currentColor" stroke-width="1.5" stroke-miterlimit="10" stroke-linecap="round" stroke-linejoin="round"/>
<path d="M7.70874 11.9131H13.7087" stroke="currentColor" stroke-width="1.5" stroke-miterlimit="10" stroke-linecap="round" stroke-linejoin="round"/>
<path d="M7.70874 16.9131H10.3287" stroke="currentColor" stroke-width="1.5" stroke-miterlimit="10" stroke-linecap="round" stroke-linejoin="round"/>
<path d="M23.7087 18.6631C23.7087 19.6431 23.4287 20.5831 22.9487 21.3631C22.6687 21.8431 22.3188 22.2631 21.9088 22.6031C20.9888 23.4231 19.7887 23.9131 18.4587 23.9131C17.3087 23.9131 16.2487 23.5431 15.3887 22.9131C14.8187 22.5031 14.3388 21.9731 13.9688 21.3631C13.4888 20.5831 13.2087 19.6431 13.2087 18.6631C13.2087 17.0131 13.9687 15.5231 15.1787 14.5731C16.0787 13.8431 17.2287 13.4131 18.4587 13.4131C19.6887 13.4131 20.8187 13.8331 21.7087 14.5431C22.9287 15.5031 23.7087 16.9931 23.7087 18.6631Z" stroke="currentColor" stroke-width="1.5" stroke-miterlimit="10" stroke-linecap="round" stroke-linejoin="round"/>
<path d="M18.4587 20.6152C18.4587 18.6631 18.4587 18.6631 21 18.6631C18.4587 18.6631 18.4587 17.9952 18.4587 16.6152C18.4587 17.9952 18.4587 18.6631 15.9587 18.6631C18.4587 18.6631 18.4587 18.6631 18.4587 20.6152Z" stroke="currentColor" stroke-width="1.5" stroke-linecap="round" stroke-linejoin="round"/>
</svg>
