<svg width="23" height="23" viewBox="0 0 23 23" fill="none" xmlns="http://www.w3.org/2000/svg">
<path fill-rule="evenodd" clip-rule="evenodd" d="M11.8501 7.26822C10.7767 7.26822 9.74735 7.69461 8.98837 8.45359C8.22939 9.21257 7.80301 10.242 7.80301 11.3153C7.80301 12.3887 8.22939 13.4181 8.98837 14.1771C9.74735 14.936 10.7767 15.3624 11.8501 15.3624C12.9235 15.3624 13.9529 14.936 14.7118 14.1771C15.4708 13.4181 15.8972 12.3887 15.8972 11.3153C15.8972 10.242 15.4708 9.21257 14.7118 8.45359C13.9529 7.69461 12.9235 7.26822 11.8501 7.26822ZM10.4192 9.88445C10.7987 9.50496 11.3134 9.29177 11.8501 9.29177C12.3868 9.29177 12.9015 9.50496 13.281 9.88445C13.6605 10.2639 13.8737 10.7786 13.8737 11.3153C13.8737 11.852 13.6605 12.3667 13.281 12.7462C12.9015 13.1257 12.3868 13.3389 11.8501 13.3389C11.3134 13.3389 10.7987 13.1257 10.4192 12.7462C10.0398 12.3667 9.82656 11.852 9.82656 11.3153C9.82656 10.7786 10.0398 10.2639 10.4192 9.88445Z"/>
<path fill-rule="evenodd" clip-rule="evenodd" d="M10.8191 0.185791C10.3595 0.185791 9.95765 0.49556 9.84066 0.940016L9.32794 2.88789L7.69894 3.57459L6.45197 2.4652C6.05161 2.10901 5.44295 2.12676 5.06402 2.50568L3.04047 4.52924C2.6739 4.8958 2.64371 5.48013 2.97053 5.88254L4.06338 7.2281L3.39322 8.87682L1.50233 9.31826C1.04447 9.42516 0.720581 9.83337 0.720581 10.3035V12.3271C0.720581 12.7833 1.02592 13.1831 1.46607 13.3032L3.4205 13.8364L4.10906 15.4698L3.00078 16.7126C2.64381 17.1129 2.66123 17.7222 3.04047 18.1014L5.06402 20.125C5.43109 20.492 6.01639 20.5217 6.41874 20.1937L7.76383 19.0972L9.37202 19.7588L9.85735 21.6808C9.97079 22.1301 10.375 22.4449 10.8383 22.4449H12.8619C13.3251 22.4449 13.7291 22.1303 13.8427 21.6813L14.3293 19.7584L15.9913 19.0701C16.1586 19.2103 16.3504 19.375 16.5413 19.5412C16.7309 19.7064 16.9072 19.862 17.0362 19.9765C17.1006 20.0337 17.1531 20.0804 17.1894 20.1128L17.2443 20.162C17.6444 20.5209 18.2561 20.505 18.6362 20.125L20.6597 18.1014C21.0321 17.729 21.0566 17.1333 20.716 16.7316L19.6138 15.4319L20.2958 13.7847L22.2223 13.2841C22.6683 13.1682 22.9796 12.7656 22.9796 12.3048V10.3035C22.9796 9.84084 22.6657 9.43709 22.2173 9.32301L20.3027 8.83591L19.6225 7.19268L20.717 5.89782C21.0566 5.49609 21.0317 4.90118 20.6597 4.52924L18.6362 2.50568C18.2627 2.13222 17.6648 2.10885 17.2634 2.45201L15.9781 3.55063L14.277 2.85121L13.7746 0.940341C13.6578 0.495725 13.2558 0.185791 12.7961 0.185791H10.8191ZM18.5699 17.3295L17.8777 18.0217L17.8701 18.0151C17.4965 17.6898 17.0151 17.278 16.7436 17.084C16.4595 16.8808 16.0907 16.8386 15.768 16.9723L13.0858 18.0832C12.7906 18.2055 12.5705 18.46 12.4921 18.7698L12.0742 20.4213H11.6264L11.2092 18.7692C11.1307 18.4584 10.9096 18.2032 10.6131 18.0813L7.97645 16.9966C7.63312 16.8554 7.24001 16.9135 6.95226 17.1481L5.8486 18.0478L5.14701 17.3462L6.04489 16.3394C6.30482 16.0479 6.37378 15.6328 6.22208 15.2729L5.09395 12.5968C4.97325 12.3105 4.72768 12.0955 4.42791 12.0137L2.74413 11.5544V11.1063L4.36332 10.7283C4.6832 10.6536 4.94691 10.4283 5.0706 10.124L6.16332 7.43572C6.30229 7.09381 6.24407 6.70335 6.01139 6.41687L5.11646 5.31498L5.82001 4.61143L6.831 5.51089C7.12247 5.7702 7.53705 5.83883 7.89654 5.68729L10.5727 4.55916C10.8619 4.43723 11.0782 4.18795 11.1581 3.88439L11.599 2.20934H12.0159L12.4479 3.8527C12.5286 4.15945 12.7484 4.41063 13.0417 4.53124L15.7806 5.65735C16.1317 5.80172 16.5341 5.73737 16.8227 5.49068L17.8669 4.59815L18.5709 5.30215L17.6792 6.35707C17.4349 6.64615 17.3723 7.04746 17.5171 7.39721L18.627 10.0784C18.7491 10.3733 19.0031 10.5933 19.3124 10.672L20.9561 11.0901V11.5224L19.2993 11.9529C18.9922 12.0327 18.7403 12.2519 18.6189 12.5451L17.508 15.2283C17.363 15.5786 17.426 15.9806 17.6712 16.2697L18.5699 17.3295Z"/>
</svg>
