<svg width="25" height="25" viewBox="0 0 25 25" fill="none" xmlns="http://www.w3.org/2000/svg">
<path d="M7.79131 2.19336C6.98629 2.19336 6.21424 2.51315 5.64501 3.08239C5.07577 3.65162 4.75598 4.42367 4.75598 5.22869V19.3935C4.75598 20.1986 5.07577 20.9706 5.64501 21.5398C6.21424 22.1091 6.98629 22.4289 7.79131 22.4289H17.9091C18.7141 22.4289 19.4861 22.1091 20.0554 21.5398C20.6246 20.9706 20.9444 20.1986 20.9444 19.3935V18.3818C20.9444 17.823 20.4914 17.37 19.9326 17.37C19.3738 17.37 18.9208 17.823 18.9208 18.3818V19.3935C18.9208 19.6619 18.8142 19.9192 18.6245 20.109C18.4347 20.2987 18.1774 20.4053 17.9091 20.4053H7.79131C7.52297 20.4053 7.26562 20.2987 7.07587 20.109C6.88613 19.9192 6.77953 19.6619 6.77953 19.3935V5.22869C6.77953 4.96035 6.88613 4.703 7.07587 4.51325C7.26562 4.32351 7.52297 4.21691 7.79131 4.21691H17.9091C18.1774 4.21691 18.4347 4.32351 18.6245 4.51325C18.8142 4.703 18.9208 4.96035 18.9208 5.22869V6.24046C18.9208 6.79925 19.3738 7.25224 19.9326 7.25224C20.4914 7.25224 20.9444 6.79925 20.9444 6.24046V5.22869C20.9444 4.42367 20.6246 3.65162 20.0554 3.08239C19.4861 2.51315 18.7141 2.19336 17.9091 2.19336H7.79131Z"/>
<path d="M17.6127 8.56035C17.2176 8.16523 16.577 8.16523 16.1819 8.56035C15.7867 8.95548 15.7867 9.5961 16.1819 9.99122L17.49 11.2993H12.8502C12.2914 11.2993 11.8384 11.7523 11.8384 12.3111C11.8384 12.8699 12.2914 13.3229 12.8502 13.3229H17.49L16.1819 14.631C15.7867 15.0261 15.7867 15.6667 16.1819 16.0619C16.577 16.457 17.2176 16.457 17.6127 16.0619L20.648 13.0265C21.0432 12.6314 21.0432 11.9908 20.648 11.5957L17.6127 8.56035Z"/>
</svg>
