<svg width="25" height="26" viewBox="0 0 25 26" fill="none" xmlns="http://www.w3.org/2000/svg">
<path fill-rule="evenodd" clip-rule="evenodd" d="M8.80307 2.79083C8.80307 2.23204 8.35009 1.77905 7.7913 1.77905C7.23251 1.77905 6.77952 2.23204 6.77952 2.79083V3.8026H5.76775C4.96273 3.8026 4.19068 4.1224 3.62145 4.69163C3.05221 5.26086 2.73242 6.03291 2.73242 6.83793V19.991C2.73242 20.796 3.05221 21.5681 3.62145 22.1373C4.19068 22.7065 4.96273 23.0263 5.76775 23.0263H19.9326C20.7376 23.0263 21.5097 22.7065 22.0789 22.1373C22.6481 21.5681 22.9679 20.796 22.9679 19.991V6.83793C22.9679 6.03291 22.6481 5.26086 22.0789 4.69163C21.5097 4.1224 20.7376 3.8026 19.9326 3.8026H19.4267C18.8679 3.8026 18.4149 4.25559 18.4149 4.81438C18.4149 5.37317 18.8679 5.82615 19.4267 5.82615H19.9326C20.2009 5.82615 20.4583 5.93275 20.648 6.1225C20.8378 6.31224 20.9444 6.56959 20.9444 6.83793V9.87326H4.75597V6.83793C4.75597 6.56959 4.86257 6.31224 5.05231 6.1225C5.24206 5.93275 5.49941 5.82615 5.76775 5.82615H6.77952V6.83793C6.77952 7.39672 7.23251 7.8497 7.7913 7.8497C8.35009 7.8497 8.80307 7.39672 8.80307 6.83793V2.79083ZM5.05231 20.7064C4.86257 20.5167 4.75597 20.2593 4.75597 19.991V11.8968H20.9444V19.991C20.9444 20.2593 20.8378 20.5167 20.648 20.7064C20.4583 20.8962 20.2009 21.0028 19.9326 21.0028H5.76775C5.49941 21.0028 5.24206 20.8962 5.05231 20.7064Z"/>
<path d="M16.8973 2.79083C16.8973 2.23204 16.4443 1.77905 15.8855 1.77905C15.3267 1.77905 14.8737 2.23204 14.8737 2.79083V3.8026H11.3325C10.7737 3.8026 10.3207 4.25559 10.3207 4.81438C10.3207 5.37317 10.7737 5.82615 11.3325 5.82615H14.8737V6.83793C14.8737 7.39672 15.3267 7.8497 15.8855 7.8497C16.4443 7.8497 16.8973 7.39672 16.8973 6.83793V2.79083Z"/>
</svg>
