<svg width="25" height="26" viewBox="0 0 25 26" xmlns="http://www.w3.org/2000/svg">
<path fill-rule="evenodd" clip-rule="evenodd" d="M12.8502 3.48975C11.9258 3.48975 11.019 3.74304 10.2284 4.22212L5.16954 7.2878C4.42562 7.7386 3.81049 8.37362 3.38359 9.1315C2.95668 9.88938 2.73241 10.7445 2.73242 11.6144V17.9805C2.73242 19.3222 3.26541 20.6089 4.21413 21.5576C5.16285 22.5064 6.4496 23.0394 7.7913 23.0394H17.909C19.2507 23.0394 20.5375 22.5064 21.4862 21.5576C22.4349 20.6089 22.9679 19.3222 22.9679 17.9805V11.6134C22.9677 10.7437 22.7433 9.8886 22.3165 9.13095C21.8896 8.37331 21.2746 7.7385 20.5308 7.28781L15.4719 4.22213C14.6814 3.74305 13.7746 3.48975 12.8502 3.48975ZM11.2771 5.95271C11.7515 5.66527 12.2955 5.5133 12.8502 5.5133C13.4048 5.5133 13.9489 5.66527 14.4232 5.95271L19.4821 9.01839C19.9283 9.28881 20.2974 9.6697 20.5535 10.1243C20.8096 10.5788 20.9442 11.0917 20.9444 11.6134V17.9805C20.9444 18.7855 20.6246 19.5575 20.0553 20.1268C19.4861 20.696 18.7141 21.0158 17.909 21.0158H16.8973V17.9805C16.8973 16.9071 16.4709 15.8777 15.7119 15.1187C14.9529 14.3598 13.9235 13.9334 12.8502 13.9334C11.7768 13.9334 10.7474 14.3598 9.98844 15.1187C9.22946 15.8777 8.80307 16.9071 8.80307 17.9805V21.0158H7.7913C6.98628 21.0158 6.21423 20.696 5.645 20.1268C5.07576 19.5575 4.75597 18.7855 4.75597 17.9805V11.6144C4.75596 11.0925 4.89053 10.5794 5.14667 10.1246C5.40281 9.66989 5.77189 9.28888 6.21824 9.0184L11.2771 5.95271ZM14.281 16.5496C14.6605 16.9291 14.8737 17.4438 14.8737 17.9805V21.0158H10.8266V17.9805C10.8266 17.4438 11.0398 16.9291 11.4193 16.5496C11.7988 16.1701 12.3135 15.9569 12.8502 15.9569C13.3869 15.9569 13.9016 16.1701 14.281 16.5496Z"/>
</svg>
