<svg width="27" height="27" viewBox="0 0 27 27" fill="none" xmlns="http://www.w3.org/2000/svg">
<path fill-rule="evenodd" clip-rule="evenodd" d="M17.5007 7.98747C17.5007 7.6883 17.7432 7.4458 18.0424 7.4458H20.2091C20.5082 7.4458 20.7507 7.6883 20.7507 7.98747V9.0708H22.3757C22.6749 9.0708 22.9174 9.3133 22.9174 9.61247V12.8625H24.5424V13.9458H22.9174V17.1958C22.9174 17.495 22.6749 17.7375 22.3757 17.7375H20.7507V18.8208C20.7507 19.12 20.5082 19.3625 20.2091 19.3625H18.0424C17.7432 19.3625 17.5007 19.12 17.5007 18.8208V13.9458H9.9174V18.8208C9.9174 19.12 9.6749 19.3625 9.37573 19.3625H7.20907C6.9099 19.3625 6.6674 19.12 6.6674 18.8208V17.7375H5.0424C4.74325 17.7375 4.50073 17.495 4.50073 17.1958V13.9458H2.87573V12.8625H4.50073V9.61247C4.50073 9.3133 4.74325 9.0708 5.0424 9.0708H6.6674V7.98747C6.6674 7.6883 6.9099 7.4458 7.20907 7.4458H9.37573C9.6749 7.4458 9.9174 7.6883 9.9174 7.98747V12.8625H17.5007V7.98747ZM7.75073 18.2791H8.83407V8.52913H7.75073V18.2791ZM6.6674 10.1541H5.58407V16.6541H6.6674V10.1541ZM20.7507 16.6541V10.1541H21.8341V16.6541H20.7507ZM19.6674 8.52913V18.2791H18.5841V8.52913H19.6674Z" />
</svg>
