<svg width="25" height="25" viewBox="0 0 25 25" fill="none" xmlns="http://www.w3.org/2000/svg">
<path d="M17.4087 19.8712H8.0087C7.5887 19.8712 7.11869 19.5412 6.97869 19.1412L2.8387 7.56122C2.2487 5.90122 2.9387 5.39122 4.3587 6.41122L8.2587 9.20122C8.9087 9.65122 9.6487 9.42122 9.9287 8.69122L11.6887 4.00122C12.2487 2.50122 13.1787 2.50122 13.7387 4.00122L15.4987 8.69122C15.7787 9.42122 16.5187 9.65122 17.1587 9.20122L20.8187 6.59122C22.3787 5.47122 23.1287 6.04122 22.4887 7.85122L18.4487 19.1612C18.2987 19.5412 17.8287 19.8712 17.4087 19.8712Z" stroke="#A2A2A2" stroke-width="1.5" stroke-linecap="round" stroke-linejoin="round"/>
<path d="M7.20874 22.8912H18.2087" stroke="currentColor" stroke-width="1.5" stroke-linecap="round" stroke-linejoin="round"/>
<path d="M10.2087 14.8912H15.2087" stroke="currentColor" stroke-width="1.5" stroke-linecap="round" stroke-linejoin="round"/>
</svg>
